# xmcd
#
# Track frame offsets:
#	150
#	11097
#	24032
#	34805
#	49775
#	59322
#	71265
#	90180
#	100572
#	112105
#	130462
#	149897
#	161685
#	175082
#	188092
#	200047
#
# Disc length: 2886 seconds
#
# Revision: 1
# Processed by: cddbd v1.4PL0 Copyright (c) Steve Scherf et al.
# Submitted via: audiograbber 1.80
#
DISCID=d80b4410
DTITLE=Aretha Franklin - More Hits
DYEAR=1900
DGENRE=
TTITLE0=You send me
TTITLE1=Skylark
TTITLE2=Since you´ve been gone
TTITLE3=Call me
TTITLE4=Good times
TTITLE5=Baby I love you
TTITLE6=Ain´t no way
TTITLE7=Don´t let me loose this dream
TTITLE8=You made me love you
TTITLE9=Drown in my own Tears
TTITLE10=A change is gonna come
TTITLE11=Soul Serenade
TTITLE12=Don´t play that song
TTITLE13=Baby, Baby, Baby
TTITLE14=Over the rainbow
TTITLE15=Misty
EXTD=
EXTT0=
EXTT1=
EXTT2=
EXTT3=
EXTT4=
EXTT5=
EXTT6=
EXTT7=
EXTT8=
EXTT9=
EXTT10=
EXTT11=
EXTT12=
EXTT13=
EXTT14=
EXTT15=
PLAYORDER=
